<?xml version="1.0" standalone="no"?>
<!DOCTYPE svg PUBLIC "-//W3C//DTD SVG 20010904//EN"
 "http://www.w3.org/TR/2001/REC-SVG-20010904/DTD/svg10.dtd">
<svg version="1.0" xmlns="http://www.w3.org/2000/svg"
 width="1280.000000pt" height="1280.000000pt" viewBox="0 0 1280.000000 1280.000000"
 preserveAspectRatio="xMidYMid meet">
<metadata>
Created by potrace 1.15, written by Peter Selinger 2001-2017
</metadata>
<g transform="translate(0.000000,1280.000000) scale(0.100000,-0.100000)"
fill="#e91e63" stroke="none">
<path d="M6120 12793 c-1097 -56 -2094 -356 -3015 -906 -1025 -613 -1889
-1545 -2425 -2617 -335 -669 -536 -1336 -635 -2115 -20 -154 -36 -397 -42
-615 -21 -894 148 -1792 493 -2613 121 -285 430 -867 461 -867 11 0 123 64
205 116 l76 49 -60 105 c-137 240 -387 765 -474 995 -85 225 -178 544 -238
815 -111 503 -143 848 -133 1445 7 366 13 468 48 700 140 944 491 1849 1007
2595 618 893 1467 1611 2440 2065 1172 546 2459 705 3722 460 723 -140 1420
-414 2070 -813 283 -174 552 -370 565 -412 4 -12 3 -26 -2 -33 -162 -213
-1214 -1535 -1570 -1974 l-124 -153 -42 21 c-23 12 -96 59 -162 104 -352 241
-709 400 -1120 500 -274 67 -352 77 -676 82 -327 6 -485 -4 -683 -42 -580
-111 -1109 -364 -1541 -736 -133 -115 -406 -394 -481 -494 -699 -922 -877
-2073 -489 -3150 147 -407 401 -813 715 -1139 176 -183 530 -481 622 -524 21
-9 38 -23 38 -31 0 -18 -24 -60 -306 -531 -256 -429 -444 -757 -444 -775 0
-26 352 -208 593 -309 1038 -432 2139 -501 3201 -199 1130 320 2110 1048 2744
2036 364 567 601 1183 711 1852 29 173 40 317 47 600 10 378 -11 702 -62 994
l-17 94 -71 -6 c-39 -3 -95 -13 -123 -22 -53 -16 -53 -16 -53 -56 0 -22 9
-113 20 -202 64 -534 51 -1035 -41 -1502 -179 -914 -602 -1708 -1259 -2365
-742 -742 -1691 -1188 -2775 -1304 -660 -71 -1433 35 -2090 286 -152 58 -455
197 -455 209 0 8 783 1303 1045 1729 169 274 303 484 361 567 l44 61 108 -28
c256 -68 299 -74 547 -74 264 -1 353 11 546 74 273 89 484 218 703 430 177
172 304 357 405 591 62 145 73 183 58 203 -15 18 -150 56 -199 56 -20 0 -40
-6 -46 -13 -6 -7 -31 -61 -56 -121 -222 -530 -675 -879 -1226 -946 -216 -26
-493 3 -670 69 -30 11 -104 48 -164 81 -60 34 -112 57 -116 53 -21 -23 -310
-492 -694 -1126 l-108 -177 -37 21 c-273 164 -607 473 -819 757 -473 635 -669
1385 -577 2202 52 458 234 939 503 1330 211 307 498 591 802 794 420 281 898
453 1410 506 125 13 451 13 581 0 596 -59 1123 -275 1624 -664 122 -95 196
-146 211 -146 15 0 50 42 865 1060 1009 1259 1212 1521 1195 1548 -28 45 -663
500 -891 638 -587 356 -1368 659 -2030 788 -505 99 -1080 143 -1545 119z"/>
<path d="M5940 11239 c-328 -27 -795 -132 -1160 -262 -680 -242 -1267 -615
-1790 -1137 -658 -657 -1096 -1451 -1304 -2365 -41 -181 -72 -363 -86 -505
-18 -181 -24 -668 -11 -890 13 -230 21 -297 57 -490 174 -939 615 -1808 1256
-2475 71 -74 128 -139 126 -144 -1 -5 -250 -261 -553 -570 -302 -308 -550
-565 -550 -570 0 -13 294 -270 490 -427 787 -633 1710 -1062 2740 -1273 800
-164 1653 -164 2485 0 1657 326 3126 1304 4071 2709 1115 1658 1391 3745 743
5632 -101 293 -172 461 -354 835 l-128 263 119 75 c65 41 174 110 242 152 67
42 137 88 154 101 32 23 32 25 18 58 -17 41 -99 169 -114 178 -6 4 -21 2 -33
-5 -52 -27 -673 -412 -1963 -1217 -2263 -1412 -2446 -1523 -2487 -1506 -7 3
-56 59 -108 126 -171 217 -365 371 -635 504 -150 74 -298 124 -440 150 -140
26 -508 26 -645 1 -348 -65 -685 -243 -941 -497 -153 -153 -259 -303 -353
-501 -98 -206 -152 -420 -165 -642 -18 -333 43 -623 193 -921 54 -107 75 -141
89 -140 19 2 155 81 195 114 l23 19 -49 98 c-141 281 -193 540 -172 848 14
199 57 349 155 546 207 418 574 701 1038 801 149 32 457 32 603 0 453 -99 786
-343 1040 -765 32 -53 68 -109 80 -124 l21 -27 94 55 c52 31 294 179 539 331
509 315 632 388 646 388 6 0 38 -66 71 -147 182 -443 253 -819 240 -1272 -14
-488 -135 -939 -367 -1364 -400 -735 -1083 -1269 -1895 -1482 -232 -61 -393
-82 -807 -101 l-128 -6 0 -130 0 -131 268 6 c367 9 572 41 887 138 369 115
757 326 1080 586 144 116 389 360 504 502 340 419 572 919 676 1454 42 215 57
382 57 627 0 461 -82 858 -265 1285 -33 77 -61 156 -64 175 l-4 35 143 90
c842 528 1709 1067 2015 1253 l182 110 66 -126 c405 -784 621 -1542 685 -2407
16 -206 13 -690 -4 -900 -46 -553 -151 -1043 -332 -1552 -226 -637 -627 -1346
-1039 -1838 -188 -224 -559 -598 -785 -790 -435 -369 -1059 -738 -1667 -984
-1105 -446 -2369 -546 -3563 -281 -316 70 -715 194 -959 299 -175 75 -625 301
-811 407 -177 100 -355 219 -570 380 -202 152 -330 259 -330 277 0 13 168 191
664 702 177 182 332 343 345 358 l25 27 -190 193 c-105 105 -221 228 -260 272
-817 933 -1210 2108 -1124 3355 52 746 313 1518 726 2146 550 837 1373 1480
2309 1803 553 192 1019 262 1630 247 538 -13 861 -72 1419 -262 182 -61 190
-63 209 -46 27 25 58 88 74 152 12 52 12 56 -7 72 -31 26 -422 151 -690 222
-89 23 -337 71 -495 95 -144 22 -337 31 -659 30 -182 -1 -378 -6 -436 -10z"/>
</g>
</svg>
